<svg width="1755" height="378" viewBox="0 0 1755 378" fill="none" xmlns="http://www.w3.org/2000/svg">
<g filter="url(#filter0_d_8_21)">
<path d="M634.215 199.546V212.499H529.094V199.546L545.212 200.246C552.221 200.947 555.725 198.146 555.725 191.844C555.725 187.877 554.557 183.326 552.221 178.191L539.256 147.384H462.167L450.253 176.091C446.983 183.326 445.347 189.16 445.347 193.595C445.347 198.496 447.917 200.83 453.056 200.596L468.825 199.546V212.499H405.401V199.546L415.563 200.246H416.965C421.637 200.246 425.491 198.029 428.528 193.595C432.032 188.46 435.536 181.692 439.04 173.29L511.223 0H528.393L601.277 173.99C604.547 182.392 607.935 189.044 611.439 193.945C614.709 198.146 618.797 200.246 623.703 200.246H625.455L634.215 199.546ZM467.072 135.131H534.35L500.361 54.6126L467.072 135.131Z" fill="url(#paint0_radial_8_21)"/>
<path d="M652.885 141.433C655.221 161.737 661.762 177.141 672.507 187.643C683.487 198.146 697.036 203.397 713.154 203.397C725.068 203.397 734.412 200.13 741.187 193.595C748.195 187.06 751.699 178.425 751.699 167.689C751.699 151.352 740.603 138.865 718.41 130.23L684.071 115.877C657.44 104.908 644.125 86.8201 644.125 61.6143C644.125 50.4117 646.811 40.1426 652.184 30.8071C657.557 21.4716 665.616 14.0033 676.362 8.40196C687.108 2.80065 700.189 0 715.607 0C723.316 0 729.857 0.583468 735.23 1.7504C740.603 2.91735 745.975 4.43437 751.348 6.30146C756.721 8.16856 760.576 9.4522 762.912 10.1524C766.883 11.5527 770.387 12.2528 773.424 12.2528C777.395 12.2528 780.665 11.7861 783.235 10.8525C782.534 16.4538 782.184 25.3225 782.184 37.4587C782.184 44.2269 782.301 49.128 782.534 52.1621C782.768 55.1961 783.352 57.9968 784.286 60.564H772.372C772.372 46.094 767.35 34.4246 757.305 25.5559C747.494 16.4538 735.463 11.9028 721.214 11.9028C710.001 11.9028 700.773 14.8201 693.532 20.6548C686.29 26.4895 682.669 34.0746 682.669 43.4101C682.669 49.9449 685.005 55.8963 689.677 61.2642C694.583 66.3987 702.292 71.0665 712.804 75.2674L742.588 87.8704C760.809 95.8055 773.774 104.324 781.483 113.426C789.425 122.295 793.397 134.081 793.397 148.784C793.397 161.387 790.477 172.823 784.637 183.092C778.797 193.128 770.153 201.18 758.707 207.248C747.26 213.083 733.361 216 717.009 216C706.73 216 695.634 214.483 683.72 211.449C670.405 207.948 661.295 206.198 656.389 206.198C654.286 206.198 651.717 206.431 648.68 206.898C645.877 207.131 644.008 207.481 643.074 207.948C644.008 203.047 644.475 194.062 644.475 180.992C644.475 171.656 644.242 163.021 643.774 155.086C643.307 147.151 642.606 142.95 641.672 142.483L652.885 141.433Z" fill="url(#paint1_radial_8_21)"/>
<path d="M827.402 141.433C829.738 161.737 836.279 177.141 847.025 187.643C858.004 198.146 871.553 203.397 887.672 203.397C899.585 203.397 908.929 200.13 915.704 193.595C922.712 187.06 926.216 178.425 926.216 167.689C926.216 151.352 915.12 138.865 892.928 130.23L858.588 115.877C831.957 104.908 818.642 86.8201 818.642 61.6143C818.642 50.4117 821.329 40.1426 826.701 30.8071C832.074 21.4716 840.134 14.0033 850.879 8.40196C861.625 2.80065 874.707 0 890.124 0C897.833 0 904.374 0.583468 909.747 1.7504C915.12 2.91735 920.493 4.43437 925.866 6.30146C931.238 8.16856 935.093 9.4522 937.429 10.1524C941.4 11.5527 944.904 12.2528 947.941 12.2528C951.912 12.2528 955.183 11.7861 957.752 10.8525C957.051 16.4538 956.701 25.3225 956.701 37.4587C956.701 44.2269 956.818 49.128 957.051 52.1621C957.285 55.1961 957.869 57.9968 958.803 60.564H946.89C946.89 46.094 941.867 34.4246 931.822 25.5559C922.011 16.4538 909.981 11.9028 895.731 11.9028C884.518 11.9028 875.291 14.8201 868.049 20.6548C860.807 26.4895 857.186 34.0746 857.186 43.4101C857.186 49.9449 859.522 55.8963 864.195 61.2642C869.1 66.3987 876.809 71.0665 887.321 75.2674L917.105 87.8704C935.326 95.8055 948.291 104.324 956 113.426C963.943 122.295 967.914 134.081 967.914 148.784C967.914 161.387 964.994 172.823 959.154 183.092C953.314 193.128 944.671 201.18 933.224 207.248C921.778 213.083 907.878 216 891.526 216C881.248 216 870.151 214.483 858.238 211.449C844.922 207.948 835.812 206.198 830.906 206.198C828.804 206.198 826.234 206.431 823.197 206.898C820.394 207.131 818.525 207.481 817.591 207.948C818.525 203.047 818.992 194.062 818.992 180.992C818.992 171.656 818.759 163.021 818.292 155.086C817.825 147.151 817.124 142.95 816.189 142.483L827.402 141.433Z" fill="url(#paint2_radial_8_21)"/>
<path d="M986.852 107.825C986.852 73.0503 996.313 46.4441 1015.23 28.0065C1034.16 9.3355 1060.79 0 1095.13 0C1129.93 0 1156.68 9.45219 1175.37 28.3566C1194.06 47.2609 1203.4 73.7504 1203.4 107.825C1203.4 142.133 1193.94 168.739 1175.02 187.643C1156.1 206.548 1129.47 216 1095.13 216C1060.79 216 1034.16 206.548 1015.23 187.643C996.313 168.739 986.852 142.133 986.852 107.825ZM1039.76 107.825C1039.76 132.331 1041.75 151.585 1045.72 165.588C1049.69 179.358 1055.65 189.16 1063.59 194.995C1071.53 200.83 1082.05 203.747 1095.13 203.747C1108.21 203.747 1118.72 200.83 1126.66 194.995C1134.61 189.16 1140.56 179.358 1144.53 165.588C1148.5 151.585 1150.49 132.331 1150.49 107.825C1150.49 83.5527 1148.5 64.4149 1144.53 50.4117C1140.56 36.4084 1134.61 26.4895 1126.66 20.6548C1118.72 14.8201 1108.21 11.9028 1095.13 11.9028C1082.05 11.9028 1071.53 14.8201 1063.59 20.6548C1055.65 26.4895 1049.69 36.4084 1045.72 50.4117C1041.75 64.4149 1039.76 83.5527 1039.76 107.825Z" fill="url(#paint3_radial_8_21)"/>
</g>
<g filter="url(#filter1_d_8_21)">
<path d="M1612.62 0H1619.95V0.293076H1620.83C1620.83 0.293076 1639.28 58.7137 1676.2 175.555L1740.08 0H1747.4L1670.05 216H1649.25L1599.44 57.4437L1542.89 216H1522.08L1454.4 0.293076H1493.37C1493.37 0.293076 1511.93 58.7137 1549.04 175.555L1595.92 46.0136L1581.56 0.293076H1612.62V0Z" fill="url(#paint4_linear_8_21)"/>
</g>
<g filter="url(#filter2_d_8_21)">
<path d="M1434.11 128.769V177.725C1429.36 183.659 1422.24 189.593 1412.74 195.527C1403.44 201.462 1392.27 206.407 1379.21 210.363C1366.15 214.121 1351.61 216 1335.58 216C1313.03 216 1293.34 211.648 1276.52 202.945C1259.71 194.044 1246.65 181.484 1237.35 165.264C1228.05 149.044 1223.4 129.857 1223.4 107.703C1223.4 85.5495 1227.95 66.4615 1237.05 50.4396C1246.35 34.4176 1259.51 22.055 1276.52 13.3517C1293.74 4.45055 1314.02 0 1337.36 0C1348.24 0 1358.83 0.79121 1369.12 2.37363C1379.41 3.75824 1388.9 5.63736 1397.61 8.01099C1406.31 10.3846 1413.53 13.1539 1419.27 16.3187L1419.87 67.0549H1417.2C1413.44 53.6044 1408 42.9231 1400.87 35.011C1393.75 26.9011 1385.44 21.1648 1375.94 17.8022C1366.64 14.2418 1356.75 12.4615 1346.27 12.4615C1330.24 12.4615 1316.59 16.4176 1305.31 24.3297C1294.23 32.044 1285.82 43.1209 1280.09 57.5604C1274.55 72 1271.78 89.3077 1271.78 109.484C1271.78 128.473 1274.35 145.088 1279.49 159.33C1284.83 173.374 1292.55 184.253 1302.64 191.967C1312.73 199.484 1325 203.341 1339.44 203.538C1346.76 203.538 1353.78 202.451 1360.51 200.275C1367.44 197.901 1373.47 194.538 1378.61 190.187C1383.76 185.835 1387.42 180.495 1389.6 174.165L1389.89 128.769C1389.89 119.868 1384.85 115.418 1374.76 115.418H1370.01V112.451H1453.4V115.418H1448.95C1438.66 115.418 1433.72 119.868 1434.11 128.769Z" fill="url(#paint5_linear_8_21)"/>
</g>
<path d="M160.288 216C121.135 215.794 83.6282 208.948 49.8454 187.844C27.5879 173.931 10.1272 155.596 3.47936 129.593C-6.09208 92.159 7.20363 61.9021 35.8077 37.7716C59.6739 17.637 88.2193 7.78643 118.645 3.34964C163.064 -3.12926 206.786 -0.91085 248.936 16.2193C262.584 21.7653 275.138 29.1844 286.34 38.8146C332.059 78.1288 331.626 139.179 285.172 177.707C259.014 199.399 227.978 209.271 194.915 213.907C183.427 215.523 171.872 215.941 160.288 216ZM160.662 202.366C176.874 202.197 193.035 201.367 209.004 198.4C235.838 193.405 261.218 184.942 282.109 166.402C317.588 134.911 319.535 84.997 286.729 50.7881C273.353 36.8386 257.427 26.6649 239.621 19.4587C201.159 3.90056 161.331 1.36631 120.79 8.18311C87.3892 13.8026 57.169 26.349 33.391 51.4859C2.25998 84.3873 3.3545 131.532 35.8151 163.236C45.1001 172.308 55.8468 179.227 67.5999 184.649C97.1443 198.268 128.554 202.131 160.662 202.366Z" fill="#084365"/>
<path d="M165.283 56.2897L217.496 87.6705C217.467 96.4192 217.298 116.958 217.298 116.958C215.373 145.606 234.729 151.211 255.003 144.974C277.936 137.922 290.387 111.963 283.313 86.7303C278.135 68.2705 265.647 55.7755 250.001 45.9323C225.532 30.5431 198.162 25.5113 169.896 24.0789C137.252 22.4261 105.739 27.2449 76.569 42.6855C56.2655 53.4322 40.8395 68.6231 36.3366 92.3791C30.4747 123.349 55.2371 151.262 84.3921 146.583C96.7035 144.607 103.263 137.202 103.498 124.472C103.704 113.153 103.675 97.1979 103.476 85.8781L155.778 56.04C155.366 83.5569 156.321 118.133 154.801 145.635C153.699 165.527 141.791 177.685 122.024 180.101C97.416 183.113 74.4093 178.948 53.4153 165.447C16.4886 141.691 8.57724 94.8325 35.602 60.0654C52.4898 38.3368 75.6067 26.9216 101.684 20.406C149.681 8.42519 196.913 9.68864 243.044 28.6846C269.717 39.6737 290.057 57.3401 298.35 85.8781C306.416 113.638 299.525 138.326 277.929 157.256C253.424 178.742 224.188 185.478 192.264 178.559C176.764 175.202 167.714 164.808 166.51 148.926C164.196 118.633 166.01 88.2655 165.283 56.2897Z" fill="#084365"/>
<path d="M34.164 345.071L27.74 327.514C27.4237 326.736 27.0952 325.811 26.7545 324.74C26.4138 323.67 26.0732 322.514 25.7325 321.273C25.4162 322.514 25.0877 323.682 24.747 324.777C24.4063 325.848 24.0778 326.784 23.7615 327.587L17.374 345.071H34.164ZM51.5015 365H43.9095C43.0578 365 42.3643 364.793 41.829 364.379C41.2937 363.941 40.8922 363.406 40.6245 362.773L36.6825 352.006H14.819L10.877 362.773C10.6823 363.333 10.3052 363.844 9.74549 364.306C9.18582 364.769 8.49232 365 7.66499 365H-1.0774e-05L20.7685 312.221H30.7695L51.5015 365ZM85.0695 321.82C84.7775 322.331 84.4612 322.709 84.1205 322.952C83.8042 323.171 83.4027 323.28 82.916 323.28C82.405 323.28 81.8453 323.098 81.237 322.733C80.653 322.344 79.9473 321.918 79.12 321.455C78.2927 320.993 77.3193 320.579 76.2 320.214C75.105 319.825 73.8032 319.63 72.2945 319.63C70.9318 319.63 69.7395 319.801 68.7175 320.141C67.6955 320.458 66.8317 320.908 66.126 321.492C65.4447 322.076 64.9337 322.782 64.593 323.609C64.2523 324.412 64.082 325.3 64.082 326.273C64.082 327.514 64.4227 328.549 65.104 329.376C65.8097 330.203 66.7343 330.909 67.878 331.493C69.0217 332.077 70.3235 332.6 71.7835 333.062C73.2435 333.525 74.74 334.024 76.273 334.559C77.806 335.07 79.3025 335.678 80.7625 336.384C82.2225 337.065 83.5243 337.941 84.668 339.012C85.8117 340.058 86.7242 341.348 87.4055 342.881C88.1112 344.414 88.464 346.275 88.464 348.465C88.464 350.85 88.0503 353.089 87.223 355.181C86.42 357.25 85.2277 359.063 83.646 360.62C82.0887 362.153 80.1785 363.37 77.9155 364.27C75.6525 365.146 73.061 365.584 70.141 365.584C68.462 365.584 66.8073 365.414 65.177 365.073C63.5467 364.757 61.9772 364.294 60.4685 363.686C58.9842 363.078 57.585 362.348 56.271 361.496C54.957 360.644 53.789 359.695 52.767 358.649L55.6505 353.94C55.8938 353.6 56.2102 353.32 56.5995 353.101C56.9888 352.858 57.4025 352.736 57.8405 352.736C58.4488 352.736 59.1058 352.991 59.8115 353.502C60.5172 353.989 61.3567 354.537 62.33 355.145C63.3033 355.753 64.4348 356.313 65.7245 356.824C67.0385 357.311 68.608 357.554 70.433 357.554C73.2313 357.554 75.397 356.897 76.93 355.583C78.463 354.245 79.2295 352.334 79.2295 349.852C79.2295 348.465 78.8767 347.334 78.171 346.458C77.4897 345.582 76.5772 344.852 75.4335 344.268C74.2898 343.66 72.988 343.149 71.528 342.735C70.068 342.321 68.5837 341.871 67.075 341.384C65.5663 340.898 64.082 340.314 62.622 339.632C61.162 338.951 59.8602 338.063 58.7165 336.968C57.5728 335.873 56.6482 334.51 55.9425 332.88C55.2612 331.225 54.9205 329.193 54.9205 326.784C54.9205 324.862 55.2977 322.988 56.052 321.163C56.8307 319.338 57.95 317.72 59.41 316.309C60.87 314.898 62.6707 313.766 64.812 312.914C66.9533 312.063 69.411 311.637 72.185 311.637C75.2997 311.637 78.171 312.124 80.799 313.097C83.427 314.07 85.6657 315.433 87.515 317.185L85.0695 321.82ZM125.134 321.82C124.842 322.331 124.526 322.709 124.185 322.952C123.869 323.171 123.467 323.28 122.98 323.28C122.469 323.28 121.91 323.098 121.301 322.733C120.717 322.344 120.012 321.918 119.184 321.455C118.357 320.993 117.384 320.579 116.264 320.214C115.169 319.825 113.868 319.63 112.359 319.63C110.996 319.63 109.804 319.801 108.782 320.141C107.76 320.458 106.896 320.908 106.19 321.492C105.509 322.076 104.998 322.782 104.657 323.609C104.317 324.412 104.146 325.3 104.146 326.273C104.146 327.514 104.487 328.549 105.168 329.376C105.874 330.203 106.799 330.909 107.942 331.493C109.086 332.077 110.388 332.6 111.848 333.062C113.308 333.525 114.804 334.024 116.337 334.559C117.87 335.07 119.367 335.678 120.827 336.384C122.287 337.065 123.589 337.941 124.732 339.012C125.876 340.058 126.789 341.348 127.47 342.881C128.176 344.414 128.528 346.275 128.528 348.465C128.528 350.85 128.115 353.089 127.287 355.181C126.484 357.25 125.292 359.063 123.71 360.62C122.153 362.153 120.243 363.37 117.98 364.27C115.717 365.146 113.125 365.584 110.205 365.584C108.526 365.584 106.872 365.414 105.241 365.073C103.611 364.757 102.042 364.294 100.533 363.686C99.0486 363.078 97.6495 362.348 96.3355 361.496C95.0215 360.644 93.8535 359.695 92.8315 358.649L95.715 353.94C95.9583 353.6 96.2746 353.32 96.664 353.101C97.0533 352.858 97.467 352.736 97.905 352.736C98.5133 352.736 99.1703 352.991 99.876 353.502C100.582 353.989 101.421 354.537 102.394 355.145C103.368 355.753 104.499 356.313 105.789 356.824C107.103 357.311 108.672 357.554 110.497 357.554C113.296 357.554 115.461 356.897 116.994 355.583C118.527 354.245 119.294 352.334 119.294 349.852C119.294 348.465 118.941 347.334 118.235 346.458C117.554 345.582 116.642 344.852 115.498 344.268C114.354 343.66 113.052 343.149 111.592 342.735C110.132 342.321 108.648 341.871 107.139 341.384C105.631 340.898 104.146 340.314 102.686 339.632C101.226 338.951 99.9246 338.063 98.781 336.968C97.6373 335.873 96.7126 334.51 96.007 332.88C95.3256 331.225 94.985 329.193 94.985 326.784C94.985 324.862 95.3621 322.988 96.1165 321.163C96.8951 319.338 98.0145 317.72 99.4745 316.309C100.934 314.898 102.735 313.766 104.876 312.914C107.018 312.063 109.475 311.637 112.249 311.637C115.364 311.637 118.235 312.124 120.863 313.097C123.491 314.07 125.73 315.433 127.579 317.185L125.134 321.82ZM187.427 338.61C187.427 342.479 186.782 346.069 185.492 349.378C184.227 352.663 182.426 355.51 180.09 357.919C177.754 360.328 174.944 362.214 171.659 363.576C168.374 364.915 164.724 365.584 160.709 365.584C156.718 365.584 153.08 364.915 149.795 363.576C146.51 362.214 143.688 360.328 141.327 357.919C138.991 355.51 137.179 352.663 135.889 349.378C134.599 346.069 133.954 342.479 133.954 338.61C133.954 334.741 134.599 331.164 135.889 327.879C137.179 324.57 138.991 321.711 141.327 319.302C143.688 316.893 146.51 315.019 149.795 313.681C153.08 312.318 156.718 311.637 160.709 311.637C163.386 311.637 165.904 311.953 168.264 312.586C170.625 313.194 172.79 314.07 174.761 315.214C176.732 316.333 178.497 317.708 180.054 319.338C181.636 320.944 182.974 322.745 184.069 324.74C185.164 326.736 185.991 328.901 186.551 331.237C187.135 333.573 187.427 336.031 187.427 338.61ZM177.389 338.61C177.389 335.715 177 333.123 176.221 330.836C175.443 328.524 174.336 326.565 172.9 324.959C171.464 323.353 169.712 322.125 167.644 321.273C165.6 320.421 163.288 319.995 160.709 319.995C158.13 319.995 155.806 320.421 153.737 321.273C151.693 322.125 149.941 323.353 148.481 324.959C147.046 326.565 145.939 328.524 145.16 330.836C144.381 333.123 143.992 335.715 143.992 338.61C143.992 341.506 144.381 344.11 145.16 346.421C145.939 348.709 147.046 350.655 148.481 352.261C149.941 353.843 151.693 355.06 153.737 355.911C155.806 356.763 158.13 357.189 160.709 357.189C163.288 357.189 165.6 356.763 167.644 355.911C169.712 355.06 171.464 353.843 172.9 352.261C174.336 350.655 175.443 348.709 176.221 346.421C177 344.11 177.389 341.506 177.389 338.61ZM232.294 352.553C232.829 352.553 233.304 352.76 233.717 353.174L237.586 357.371C235.445 360.024 232.805 362.056 229.666 363.467C226.551 364.878 222.804 365.584 218.424 365.584C214.506 365.584 210.978 364.915 207.839 363.576C204.724 362.238 202.06 360.377 199.845 357.992C197.631 355.607 195.928 352.76 194.735 349.451C193.567 346.142 192.983 342.528 192.983 338.61C192.983 334.644 193.616 331.018 194.881 327.733C196.147 324.424 197.923 321.577 200.21 319.192C202.522 316.808 205.272 314.958 208.459 313.644C211.647 312.306 215.175 311.637 219.044 311.637C222.889 311.637 226.296 312.27 229.264 313.535C232.257 314.8 234.8 316.455 236.893 318.499L233.608 323.061C233.413 323.353 233.158 323.609 232.841 323.828C232.549 324.047 232.136 324.156 231.6 324.156C231.235 324.156 230.858 324.059 230.469 323.864C230.08 323.645 229.654 323.39 229.191 323.098C228.729 322.782 228.194 322.441 227.585 322.076C226.977 321.711 226.271 321.382 225.468 321.09C224.665 320.774 223.729 320.519 222.658 320.324C221.612 320.105 220.395 319.995 219.008 319.995C216.648 319.995 214.482 320.421 212.511 321.273C210.564 322.1 208.885 323.317 207.474 324.923C206.063 326.505 204.968 328.451 204.189 330.763C203.41 333.05 203.021 335.666 203.021 338.61C203.021 341.579 203.435 344.219 204.262 346.531C205.114 348.843 206.257 350.789 207.693 352.371C209.129 353.953 210.82 355.169 212.766 356.021C214.713 356.848 216.806 357.262 219.044 357.262C220.383 357.262 221.587 357.189 222.658 357.043C223.753 356.897 224.751 356.666 225.651 356.349C226.576 356.033 227.439 355.632 228.242 355.145C229.07 354.634 229.885 354.013 230.688 353.283C230.931 353.064 231.187 352.894 231.454 352.772C231.722 352.626 232.002 352.553 232.294 352.553ZM254.167 365H244.312V312.221H254.167V365ZM293.87 345.071L287.446 327.514C287.13 326.736 286.801 325.811 286.461 324.74C286.12 323.67 285.779 322.514 285.439 321.273C285.122 322.514 284.794 323.682 284.453 324.777C284.112 325.848 283.784 326.784 283.468 327.587L277.08 345.071H293.87ZM311.208 365H303.616C302.764 365 302.07 364.793 301.535 364.379C301 363.941 300.598 363.406 300.331 362.773L296.389 352.006H274.525L270.583 362.773C270.388 363.333 270.011 363.844 269.452 364.306C268.892 364.769 268.198 365 267.371 365H259.706L280.475 312.221H290.476L311.208 365ZM356.639 357.371C354.717 359.78 352.381 361.678 349.631 363.065C346.882 364.428 343.633 365.243 339.886 365.511L339.411 367.227C341.699 367.762 343.305 368.48 344.229 369.38C345.154 370.305 345.616 371.4 345.616 372.665C345.616 373.492 345.397 374.235 344.959 374.892C344.546 375.549 343.937 376.108 343.134 376.571C342.356 377.033 341.419 377.386 340.324 377.629C339.229 377.872 338.024 377.994 336.71 377.994C335.713 377.994 334.776 377.921 333.9 377.775C333.048 377.653 332.196 377.459 331.345 377.191L332.184 374.38C332.33 373.821 332.683 373.541 333.243 373.541C333.583 373.541 333.948 373.626 334.338 373.797C334.751 373.991 335.348 374.089 336.126 374.089C336.929 374.089 337.525 373.93 337.915 373.614C338.328 373.322 338.535 372.957 338.535 372.519C338.535 371.813 338.097 371.302 337.221 370.986C336.345 370.694 334.995 370.414 333.17 370.147L334.776 365.475C331.272 365.158 328.108 364.282 325.286 362.846C322.487 361.386 320.103 359.476 318.132 357.116C316.161 354.756 314.652 352.006 313.606 348.867C312.559 345.728 312.036 342.309 312.036 338.61C312.036 334.644 312.669 331.018 313.934 327.733C315.2 324.424 316.976 321.577 319.263 319.192C321.575 316.808 324.325 314.958 327.512 313.644C330.7 312.306 334.228 311.637 338.097 311.637C341.942 311.637 345.349 312.27 348.317 313.535C351.31 314.8 353.853 316.455 355.946 318.499L352.661 323.061C352.466 323.353 352.211 323.609 351.894 323.828C351.602 324.047 351.189 324.156 350.653 324.156C350.288 324.156 349.911 324.059 349.522 323.864C349.132 323.645 348.707 323.39 348.244 323.098C347.782 322.782 347.247 322.441 346.638 322.076C346.03 321.711 345.324 321.382 344.521 321.09C343.718 320.774 342.781 320.519 341.711 320.324C340.664 320.105 339.448 319.995 338.061 319.995C335.7 319.995 333.535 320.421 331.564 321.273C329.617 322.1 327.938 323.317 326.527 324.923C325.115 326.505 324.02 328.451 323.242 330.763C322.463 333.05 322.074 335.666 322.074 338.61C322.074 341.579 322.487 344.219 323.315 346.531C324.166 348.843 325.31 350.789 326.746 352.371C328.181 353.953 329.873 355.169 331.819 356.021C333.766 356.848 335.859 357.262 338.097 357.262C339.436 357.262 340.64 357.189 341.711 357.043C342.806 356.897 343.803 356.666 344.704 356.349C345.628 356.033 346.492 355.632 347.295 355.145C348.123 354.634 348.938 354.013 349.741 353.283C349.984 353.064 350.24 352.894 350.507 352.772C350.775 352.626 351.055 352.553 351.347 352.553C351.882 352.553 352.357 352.76 352.77 353.174L356.639 357.371ZM391.251 345.071L384.827 327.514C384.511 326.736 384.182 325.811 383.841 324.74C383.501 323.67 383.16 322.514 382.819 321.273C382.503 322.514 382.175 323.682 381.834 324.777C381.493 325.848 381.165 326.784 380.848 327.587L374.461 345.071H391.251ZM408.588 365H400.996C400.145 365 399.451 364.793 398.916 364.379C398.381 363.941 397.979 363.406 397.711 362.773L393.769 352.006H371.906L367.964 362.773C367.769 363.333 367.392 363.844 366.832 364.306C366.273 364.769 365.579 365 364.752 365H357.087L377.855 312.221H387.856L408.588 365ZM387.382 302.986C387.917 302.986 388.38 302.877 388.769 302.658C389.183 302.439 389.511 302.171 389.754 301.855C390.022 301.514 390.217 301.149 390.338 300.76C390.46 300.346 390.521 299.945 390.521 299.555H396.032C396.032 300.772 395.862 301.94 395.521 303.059C395.205 304.154 394.718 305.14 394.061 306.016C393.429 306.868 392.638 307.549 391.689 308.06C390.764 308.571 389.694 308.826 388.477 308.826C387.236 308.826 386.153 308.632 385.228 308.242C384.328 307.853 383.501 307.439 382.746 307.001C381.992 306.539 381.299 306.113 380.666 305.724C380.058 305.335 379.425 305.14 378.768 305.14C378.208 305.14 377.734 305.249 377.344 305.468C376.955 305.687 376.639 305.967 376.395 306.308C376.152 306.649 375.97 307.026 375.848 307.439C375.726 307.853 375.665 308.255 375.665 308.644H370.081C370.081 307.452 370.251 306.296 370.592 305.176C370.933 304.033 371.419 303.035 372.052 302.183C372.709 301.307 373.5 300.614 374.424 300.103C375.373 299.568 376.456 299.3 377.673 299.3C378.914 299.3 379.997 299.495 380.921 299.884C381.846 300.273 382.673 300.699 383.403 301.161C384.133 301.599 384.815 302.013 385.447 302.402C386.08 302.792 386.725 302.986 387.382 302.986ZM462.817 338.61C462.817 342.479 462.172 346.069 460.882 349.378C459.617 352.663 457.816 355.51 455.48 357.919C453.144 360.328 450.334 362.214 447.049 363.576C443.764 364.915 440.114 365.584 436.099 365.584C432.108 365.584 428.47 364.915 425.185 363.576C421.9 362.214 419.077 360.328 416.717 357.919C414.381 355.51 412.568 352.663 411.279 349.378C409.989 346.069 409.344 342.479 409.344 338.61C409.344 334.741 409.989 331.164 411.279 327.879C412.568 324.57 414.381 321.711 416.717 319.302C419.077 316.893 421.9 315.019 425.185 313.681C428.47 312.318 432.108 311.637 436.099 311.637C438.775 311.637 441.294 311.953 443.654 312.586C446.014 313.194 448.18 314.07 450.151 315.214C452.122 316.333 453.886 317.708 455.444 319.338C457.025 320.944 458.364 322.745 459.459 324.74C460.554 326.736 461.381 328.901 461.941 331.237C462.525 333.573 462.817 336.031 462.817 338.61ZM452.779 338.61C452.779 335.715 452.39 333.123 451.611 330.836C450.832 328.524 449.725 326.565 448.29 324.959C446.854 323.353 445.102 322.125 443.034 321.273C440.99 320.421 438.678 319.995 436.099 319.995C433.519 319.995 431.195 320.421 429.127 321.273C427.083 322.125 425.331 323.353 423.871 324.959C422.435 326.565 421.328 328.524 420.55 330.836C419.771 333.123 419.382 335.715 419.382 338.61C419.382 341.506 419.771 344.11 420.55 346.421C421.328 348.709 422.435 350.655 423.871 352.261C425.331 353.843 427.083 355.06 429.127 355.911C431.195 356.763 433.519 357.189 436.099 357.189C438.678 357.189 440.99 356.763 443.034 355.911C445.102 355.06 446.854 353.843 448.29 352.261C449.725 350.655 450.832 348.709 451.611 346.421C452.39 344.11 452.779 341.506 452.779 338.61ZM536.056 338.61C536.056 342.479 535.411 346.032 534.122 349.268C532.832 352.505 531.019 355.291 528.683 357.627C526.347 359.963 523.537 361.776 520.252 363.065C516.967 364.355 513.317 365 509.302 365H489.19V312.221H509.302C513.317 312.221 516.967 312.878 520.252 314.192C523.537 315.482 526.347 317.294 528.683 319.63C531.019 321.942 532.832 324.716 534.122 327.952C535.411 331.189 536.056 334.741 536.056 338.61ZM525.982 338.61C525.982 335.715 525.593 333.123 524.814 330.836C524.06 328.524 522.953 326.578 521.493 324.996C520.057 323.39 518.305 322.161 516.237 321.309C514.193 320.458 511.881 320.032 509.302 320.032H499.045V357.189H509.302C511.881 357.189 514.193 356.763 516.237 355.911C518.305 355.06 520.057 353.843 521.493 352.261C522.953 350.655 524.06 348.709 524.814 346.421C525.593 344.11 525.982 341.506 525.982 338.61ZM554.579 320.032V334.668H573.048V342.224H554.579V357.152H578.012V365H544.724V312.221H578.012V320.032H554.579ZM640.709 352.553C641.244 352.553 641.719 352.76 642.133 353.174L646.002 357.371C643.86 360.024 641.22 362.056 638.081 363.467C634.966 364.878 631.219 365.584 626.839 365.584C622.921 365.584 619.393 364.915 616.254 363.576C613.139 362.238 610.475 360.377 608.261 357.992C606.046 355.607 604.343 352.76 603.151 349.451C601.983 346.142 601.399 342.528 601.399 338.61C601.399 334.644 602.031 331.018 603.297 327.733C604.562 324.424 606.338 321.577 608.626 319.192C610.937 316.808 613.687 314.958 616.875 313.644C620.062 312.306 623.591 311.637 627.46 311.637C631.304 311.637 634.711 312.27 637.68 313.535C640.673 314.8 643.215 316.455 645.308 318.499L642.023 323.061C641.828 323.353 641.573 323.609 641.257 323.828C640.965 324.047 640.551 324.156 640.016 324.156C639.651 324.156 639.273 324.059 638.884 323.864C638.495 323.645 638.069 323.39 637.607 323.098C637.144 322.782 636.609 322.441 636.001 322.076C635.392 321.711 634.687 321.382 633.884 321.09C633.081 320.774 632.144 320.519 631.073 320.324C630.027 320.105 628.81 319.995 627.423 319.995C625.063 319.995 622.897 320.421 620.926 321.273C618.979 322.1 617.3 323.317 615.889 324.923C614.478 326.505 613.383 328.451 612.604 330.763C611.825 333.05 611.436 335.666 611.436 338.61C611.436 341.579 611.85 344.219 612.677 346.531C613.529 348.843 614.672 350.789 616.108 352.371C617.544 353.953 619.235 355.169 621.182 356.021C623.128 356.848 625.221 357.262 627.46 357.262C628.798 357.262 630.002 357.189 631.073 357.043C632.168 356.897 633.166 356.666 634.066 356.349C634.991 356.033 635.855 355.632 636.658 355.145C637.485 354.634 638.3 354.013 639.103 353.283C639.346 353.064 639.602 352.894 639.87 352.772C640.137 352.626 640.417 352.553 640.709 352.553ZM701.92 338.61C701.92 342.479 701.275 346.069 699.986 349.378C698.72 352.663 696.92 355.51 694.584 357.919C692.248 360.328 689.437 362.214 686.152 363.576C682.867 364.915 679.217 365.584 675.202 365.584C671.211 365.584 667.574 364.915 664.289 363.576C661.004 362.214 658.181 360.328 655.821 357.919C653.485 355.51 651.672 352.663 650.382 349.378C649.092 346.069 648.448 342.479 648.448 338.61C648.448 334.741 649.092 331.164 650.382 327.879C651.672 324.57 653.485 321.711 655.821 319.302C658.181 316.893 661.004 315.019 664.289 313.681C667.574 312.318 671.211 311.637 675.202 311.637C677.879 311.637 680.397 311.953 682.758 312.586C685.118 313.194 687.284 314.07 689.255 315.214C691.226 316.333 692.99 317.708 694.547 319.338C696.129 320.944 697.467 322.745 698.562 324.74C699.657 326.736 700.484 328.901 701.044 331.237C701.628 333.573 701.92 336.031 701.92 338.61ZM691.883 338.61C691.883 335.715 691.493 333.123 690.715 330.836C689.936 328.524 688.829 326.565 687.393 324.959C685.957 323.353 684.205 322.125 682.137 321.273C680.093 320.421 677.781 319.995 675.202 319.995C672.623 319.995 670.299 320.421 668.231 321.273C666.187 322.125 664.435 323.353 662.975 324.959C661.539 326.565 660.432 328.524 659.653 330.836C658.874 333.123 658.485 335.715 658.485 338.61C658.485 341.506 658.874 344.11 659.653 346.421C660.432 348.709 661.539 350.655 662.975 352.261C664.435 353.843 666.187 355.06 668.231 355.911C670.299 356.763 672.623 357.189 675.202 357.189C677.781 357.189 680.093 356.763 682.137 355.911C684.205 355.06 685.957 353.843 687.393 352.261C688.829 350.655 689.936 348.709 690.715 346.421C691.493 344.11 691.883 341.506 691.883 338.61ZM755.036 312.221V365H749.999C749.22 365 748.563 364.878 748.028 364.635C747.517 364.367 747.018 363.929 746.532 363.321L718.974 328.135C719.12 329.741 719.193 331.225 719.193 332.588V365H710.543V312.221H715.689C716.103 312.221 716.456 312.245 716.748 312.294C717.064 312.318 717.332 312.391 717.551 312.513C717.794 312.61 718.025 312.768 718.244 312.987C718.463 313.182 718.706 313.45 718.974 313.79L746.641 349.122C746.568 348.271 746.507 347.431 746.459 346.604C746.41 345.777 746.386 345.01 746.386 344.304V312.221H755.036ZM803.034 352.553C803.57 352.553 804.044 352.76 804.458 353.174L808.327 357.371C806.185 360.024 803.545 362.056 800.406 363.467C797.292 364.878 793.544 365.584 789.164 365.584C785.247 365.584 781.718 364.915 778.579 363.576C775.465 362.238 772.8 360.377 770.586 357.992C768.371 355.607 766.668 352.76 765.476 349.451C764.308 346.142 763.724 342.528 763.724 338.61C763.724 334.644 764.356 331.018 765.622 327.733C766.887 324.424 768.663 321.577 770.951 319.192C773.262 316.808 776.012 314.958 779.2 313.644C782.387 312.306 785.916 311.637 789.785 311.637C793.629 311.637 797.036 312.27 800.005 313.535C802.998 314.8 805.541 316.455 807.633 318.499L804.348 323.061C804.154 323.353 803.898 323.609 803.582 323.828C803.29 324.047 802.876 324.156 802.341 324.156C801.976 324.156 801.599 324.059 801.209 323.864C800.82 323.645 800.394 323.39 799.932 323.098C799.469 322.782 798.934 322.441 798.326 322.076C797.717 321.711 797.012 321.382 796.209 321.09C795.406 320.774 794.469 320.519 793.398 320.324C792.352 320.105 791.135 319.995 789.748 319.995C787.388 319.995 785.222 320.421 783.251 321.273C781.305 322.1 779.626 323.317 778.214 324.923C776.803 326.505 775.708 328.451 774.929 330.763C774.151 333.05 773.761 335.666 773.761 338.61C773.761 341.579 774.175 344.219 775.002 346.531C775.854 348.843 776.998 350.789 778.433 352.371C779.869 353.953 781.56 355.169 783.507 356.021C785.453 356.848 787.546 357.262 789.785 357.262C791.123 357.262 792.328 357.189 793.398 357.043C794.493 356.897 795.491 356.666 796.391 356.349C797.316 356.033 798.18 355.632 798.983 355.145C799.81 354.634 800.625 354.013 801.428 353.283C801.672 353.064 801.927 352.894 802.195 352.772C802.462 352.626 802.742 352.553 803.034 352.553ZM824.907 320.032V334.668H843.376V342.224H824.907V357.152H848.34V365H815.052V312.221H848.34V320.032H824.907ZM885.147 321.82C884.855 322.331 884.538 322.709 884.198 322.952C883.881 323.171 883.48 323.28 882.993 323.28C882.482 323.28 881.922 323.098 881.314 322.733C880.73 322.344 880.024 321.918 879.197 321.455C878.37 320.993 877.396 320.579 876.277 320.214C875.182 319.825 873.88 319.63 872.372 319.63C871.009 319.63 869.817 319.801 868.795 320.141C867.773 320.458 866.909 320.908 866.203 321.492C865.522 322.076 865.011 322.782 864.67 323.609C864.329 324.412 864.159 325.3 864.159 326.273C864.159 327.514 864.5 328.549 865.181 329.376C865.887 330.203 866.811 330.909 867.955 331.493C869.099 332.077 870.401 332.6 871.861 333.062C873.321 333.525 874.817 334.024 876.35 334.559C877.883 335.07 879.38 335.678 880.84 336.384C882.3 337.065 883.601 337.941 884.745 339.012C885.889 340.058 886.801 341.348 887.483 342.881C888.188 344.414 888.541 346.275 888.541 348.465C888.541 350.85 888.127 353.089 887.3 355.181C886.497 357.25 885.305 359.063 883.723 360.62C882.166 362.153 880.256 363.37 877.993 364.27C875.73 365.146 873.138 365.584 870.218 365.584C868.539 365.584 866.884 365.414 865.254 365.073C863.624 364.757 862.054 364.294 860.546 363.686C859.061 363.078 857.662 362.348 856.348 361.496C855.034 360.644 853.866 359.695 852.844 358.649L855.728 353.94C855.971 353.6 856.287 353.32 856.677 353.101C857.066 352.858 857.48 352.736 857.918 352.736C858.526 352.736 859.183 352.991 859.889 353.502C860.594 353.989 861.434 354.537 862.407 355.145C863.38 355.753 864.512 356.313 865.802 356.824C867.116 357.311 868.685 357.554 870.51 357.554C873.308 357.554 875.474 356.897 877.007 355.583C878.54 354.245 879.307 352.334 879.307 349.852C879.307 348.465 878.954 347.334 878.248 346.458C877.567 345.582 876.654 344.852 875.511 344.268C874.367 343.66 873.065 343.149 871.605 342.735C870.145 342.321 868.661 341.871 867.152 341.384C865.643 340.898 864.159 340.314 862.699 339.632C861.239 338.951 859.937 338.063 858.794 336.968C857.65 335.873 856.725 334.51 856.02 332.88C855.338 331.225 854.998 329.193 854.998 326.784C854.998 324.862 855.375 322.988 856.129 321.163C856.908 319.338 858.027 317.72 859.487 316.309C860.947 314.898 862.748 313.766 864.889 312.914C867.03 312.063 869.488 311.637 872.262 311.637C875.377 311.637 878.248 312.124 880.876 313.097C883.504 314.07 885.743 315.433 887.592 317.185L885.147 321.82ZM925.211 321.82C924.919 322.331 924.603 322.709 924.262 322.952C923.946 323.171 923.544 323.28 923.058 323.28C922.547 323.28 921.987 323.098 921.379 322.733C920.795 322.344 920.089 321.918 919.262 321.455C918.434 320.993 917.461 320.579 916.342 320.214C915.247 319.825 913.945 319.63 912.436 319.63C911.073 319.63 909.881 319.801 908.859 320.141C907.837 320.458 906.973 320.908 906.268 321.492C905.586 322.076 905.075 322.782 904.735 323.609C904.394 324.412 904.224 325.3 904.224 326.273C904.224 327.514 904.564 328.549 905.246 329.376C905.951 330.203 906.876 330.909 908.02 331.493C909.163 332.077 910.465 332.6 911.925 333.062C913.385 333.525 914.882 334.024 916.415 334.559C917.948 335.07 919.444 335.678 920.904 336.384C922.364 337.065 923.666 337.941 924.81 339.012C925.953 340.058 926.866 341.348 927.547 342.881C928.253 344.414 928.606 346.275 928.606 348.465C928.606 350.85 928.192 353.089 927.365 355.181C926.562 357.25 925.369 359.063 923.788 360.62C922.23 362.153 920.32 363.37 918.057 364.27C915.794 365.146 913.203 365.584 910.283 365.584C908.604 365.584 906.949 365.414 905.319 365.073C903.688 364.757 902.119 364.294 900.61 363.686C899.126 363.078 897.727 362.348 896.413 361.496C895.099 360.644 893.931 359.695 892.909 358.649L895.792 353.94C896.035 353.6 896.352 353.32 896.741 353.101C897.13 352.858 897.544 352.736 897.982 352.736C898.59 352.736 899.247 352.991 899.953 353.502C900.659 353.989 901.498 354.537 902.472 355.145C903.445 355.753 904.576 356.313 905.866 356.824C907.18 357.311 908.75 357.554 910.575 357.554C913.373 357.554 915.539 356.897 917.072 355.583C918.605 354.245 919.371 352.334 919.371 349.852C919.371 348.465 919.018 347.334 918.313 346.458C917.631 345.582 916.719 344.852 915.575 344.268C914.431 343.66 913.13 343.149 911.67 342.735C910.21 342.321 908.725 341.871 907.217 341.384C905.708 340.898 904.224 340.314 902.764 339.632C901.304 338.951 900.002 338.063 898.858 336.968C897.714 335.873 896.79 334.51 896.084 332.88C895.403 331.225 895.062 329.193 895.062 326.784C895.062 324.862 895.439 322.988 896.194 321.163C896.972 319.338 898.092 317.72 899.552 316.309C901.012 314.898 902.812 313.766 904.954 312.914C907.095 312.063 909.553 311.637 912.327 311.637C915.441 311.637 918.313 312.124 920.941 313.097C923.569 314.07 925.807 315.433 927.657 317.185L925.211 321.82ZM947.026 365H937.171V312.221H947.026V365ZM1009.18 338.61C1009.18 342.479 1008.53 346.069 1007.24 349.378C1005.98 352.663 1004.18 355.51 1001.84 357.919C999.503 360.328 996.693 362.214 993.408 363.576C990.123 364.915 986.473 365.584 982.458 365.584C978.467 365.584 974.829 364.915 971.544 363.576C968.259 362.214 965.437 360.328 963.076 357.919C960.74 355.51 958.928 352.663 957.638 349.378C956.348 346.069 955.703 342.479 955.703 338.61C955.703 334.741 956.348 331.164 957.638 327.879C958.928 324.57 960.74 321.711 963.076 319.302C965.437 316.893 968.259 315.019 971.544 313.681C974.829 312.318 978.467 311.637 982.458 311.637C985.135 311.637 987.653 311.953 990.013 312.586C992.374 313.194 994.539 314.07 996.51 315.214C998.481 316.333 1000.25 317.708 1001.8 319.338C1003.38 320.944 1004.72 322.745 1005.82 324.74C1006.91 326.736 1007.74 328.901 1008.3 331.237C1008.88 333.573 1009.18 336.031 1009.18 338.61ZM999.138 338.61C999.138 335.715 998.749 333.123 997.97 330.836C997.192 328.524 996.085 326.565 994.649 324.959C993.213 323.353 991.461 322.125 989.393 321.273C987.349 320.421 985.037 319.995 982.458 319.995C979.879 319.995 977.555 320.421 975.486 321.273C973.442 322.125 971.69 323.353 970.23 324.959C968.795 326.565 967.688 328.524 966.909 330.836C966.13 333.123 965.741 335.715 965.741 338.61C965.741 341.506 966.13 344.11 966.909 346.421C967.688 348.709 968.795 350.655 970.23 352.261C971.69 353.843 973.442 355.06 975.486 355.911C977.555 356.763 979.879 357.189 982.458 357.189C985.037 357.189 987.349 356.763 989.393 355.911C991.461 355.06 993.213 353.843 994.649 352.261C996.085 350.655 997.192 348.709 997.97 346.421C998.749 344.11 999.138 341.506 999.138 338.61ZM1062.29 312.221V365H1057.26C1056.48 365 1055.82 364.878 1055.28 364.635C1054.77 364.367 1054.27 363.929 1053.79 363.321L1026.23 328.135C1026.38 329.741 1026.45 331.225 1026.45 332.588V365H1017.8V312.221H1022.94C1023.36 312.221 1023.71 312.245 1024 312.294C1024.32 312.318 1024.59 312.391 1024.81 312.513C1025.05 312.61 1025.28 312.768 1025.5 312.987C1025.72 313.182 1025.96 313.45 1026.23 313.79L1053.9 349.122C1053.82 348.271 1053.76 347.431 1053.71 346.604C1053.67 345.777 1053.64 345.01 1053.64 344.304V312.221H1062.29ZM1101.93 345.071L1095.51 327.514C1095.19 326.736 1094.86 325.811 1094.52 324.74C1094.18 323.67 1093.84 322.514 1093.5 321.273C1093.18 322.514 1092.86 323.682 1092.51 324.777C1092.17 325.848 1091.85 326.784 1091.53 327.587L1085.14 345.071H1101.93ZM1119.27 365H1111.68C1110.83 365 1110.13 364.793 1109.6 364.379C1109.06 363.941 1108.66 363.406 1108.39 362.773L1104.45 352.006H1082.59L1078.64 362.773C1078.45 363.333 1078.07 363.844 1077.51 364.306C1076.95 364.769 1076.26 365 1075.43 365H1067.77L1088.54 312.221H1098.54L1119.27 365ZM1108.83 297.073L1097 307.512C1096.52 307.95 1096.06 308.218 1095.62 308.315C1095.18 308.413 1094.62 308.461 1093.94 308.461H1087.4L1095.03 298.57C1095.28 298.229 1095.52 297.962 1095.76 297.767C1096.01 297.548 1096.27 297.39 1096.57 297.292C1096.86 297.195 1097.17 297.134 1097.52 297.11C1097.88 297.086 1098.31 297.073 1098.79 297.073H1108.83ZM1140.68 337.333C1142.53 337.333 1144.14 337.102 1145.5 336.639C1146.89 336.177 1148.02 335.544 1148.9 334.741C1149.8 333.914 1150.46 332.941 1150.9 331.821C1151.34 330.702 1151.56 329.473 1151.56 328.135C1151.56 325.458 1150.67 323.402 1148.9 321.966C1147.14 320.531 1144.45 319.813 1140.83 319.813H1134.55V337.333H1140.68ZM1165.94 365H1157.07C1155.39 365 1154.18 364.343 1153.42 363.029L1142.33 346.129C1141.91 345.497 1141.45 345.047 1140.94 344.779C1140.45 344.511 1139.72 344.378 1138.75 344.378H1134.55V365H1124.73V312.221H1140.83C1144.41 312.221 1147.47 312.598 1150.03 313.352C1152.61 314.082 1154.71 315.117 1156.34 316.455C1158 317.793 1159.21 319.399 1159.99 321.273C1160.77 323.122 1161.16 325.166 1161.16 327.405C1161.16 329.181 1160.89 330.86 1160.36 332.442C1159.85 334.024 1159.09 335.459 1158.09 336.749C1157.12 338.039 1155.9 339.17 1154.44 340.143C1153.01 341.117 1151.36 341.883 1149.52 342.443C1150.15 342.808 1150.73 343.246 1151.27 343.757C1151.8 344.244 1152.29 344.828 1152.73 345.509L1165.94 365ZM1181.5 365H1171.64V312.221H1181.5V365ZM1221.2 345.071L1214.77 327.514C1214.46 326.736 1214.13 325.811 1213.79 324.74C1213.45 323.67 1213.11 322.514 1212.77 321.273C1212.45 322.514 1212.12 323.682 1211.78 324.777C1211.44 325.848 1211.11 326.784 1210.8 327.587L1204.41 345.071H1221.2ZM1238.54 365H1230.94C1230.09 365 1229.4 364.793 1228.86 364.379C1228.33 363.941 1227.93 363.406 1227.66 362.773L1223.72 352.006H1201.85L1197.91 362.773C1197.72 363.333 1197.34 363.844 1196.78 364.306C1196.22 364.769 1195.53 365 1194.7 365H1187.03L1207.8 312.221H1217.8L1238.54 365ZM1272.1 321.82C1271.81 322.331 1271.5 322.709 1271.15 322.952C1270.84 323.171 1270.44 323.28 1269.95 323.28C1269.44 323.28 1268.88 323.098 1268.27 322.733C1267.69 322.344 1266.98 321.918 1266.15 321.455C1265.33 320.993 1264.35 320.579 1263.23 320.214C1262.14 319.825 1260.84 319.63 1259.33 319.63C1257.97 319.63 1256.77 319.801 1255.75 320.141C1254.73 320.458 1253.87 320.908 1253.16 321.492C1252.48 322.076 1251.97 322.782 1251.63 323.609C1251.29 324.412 1251.12 325.3 1251.12 326.273C1251.12 327.514 1251.46 328.549 1252.14 329.376C1252.84 330.203 1253.77 330.909 1254.91 331.493C1256.06 332.077 1257.36 332.6 1258.82 333.062C1260.28 333.525 1261.77 334.024 1263.31 334.559C1264.84 335.07 1266.34 335.678 1267.8 336.384C1269.26 337.065 1270.56 337.941 1271.7 339.012C1272.85 340.058 1273.76 341.348 1274.44 342.881C1275.15 344.414 1275.5 346.275 1275.5 348.465C1275.5 350.85 1275.08 353.089 1274.26 355.181C1273.45 357.25 1272.26 359.063 1270.68 360.62C1269.12 362.153 1267.21 363.37 1264.95 364.27C1262.69 365.146 1260.1 365.584 1257.18 365.584C1255.5 365.584 1253.84 365.414 1252.21 365.073C1250.58 364.757 1249.01 364.294 1247.5 363.686C1246.02 363.078 1244.62 362.348 1243.31 361.496C1241.99 360.644 1240.82 359.695 1239.8 358.649L1242.68 353.94C1242.93 353.6 1243.24 353.32 1243.63 353.101C1244.02 352.858 1244.44 352.736 1244.87 352.736C1245.48 352.736 1246.14 352.991 1246.85 353.502C1247.55 353.989 1248.39 354.537 1249.36 355.145C1250.34 355.753 1251.47 356.313 1252.76 356.824C1254.07 357.311 1255.64 357.554 1257.47 357.554C1260.27 357.554 1262.43 356.897 1263.96 355.583C1265.5 354.245 1266.26 352.334 1266.26 349.852C1266.26 348.465 1265.91 347.334 1265.21 346.458C1264.52 345.582 1263.61 344.852 1262.47 344.268C1261.32 343.66 1260.02 343.149 1258.56 342.735C1257.1 342.321 1255.62 341.871 1254.11 341.384C1252.6 340.898 1251.12 340.314 1249.66 339.632C1248.2 338.951 1246.89 338.063 1245.75 336.968C1244.61 335.873 1243.68 334.51 1242.98 332.88C1242.3 331.225 1241.95 329.193 1241.95 326.784C1241.95 324.862 1242.33 322.988 1243.09 321.163C1243.86 319.338 1244.98 317.72 1246.44 316.309C1247.9 314.898 1249.7 313.766 1251.85 312.914C1253.99 312.063 1256.45 311.637 1259.22 311.637C1262.33 311.637 1265.21 312.124 1267.83 313.097C1270.46 314.07 1272.7 315.433 1274.55 317.185L1272.1 321.82ZM1345.32 338.537V359.89C1342.65 361.861 1339.79 363.309 1336.74 364.233C1333.73 365.134 1330.49 365.584 1327.04 365.584C1322.73 365.584 1318.82 364.915 1315.32 363.576C1311.84 362.238 1308.86 360.377 1306.38 357.992C1303.92 355.607 1302.02 352.76 1300.68 349.451C1299.34 346.142 1298.68 342.528 1298.68 338.61C1298.68 334.644 1299.32 331.006 1300.61 327.697C1301.9 324.388 1303.72 321.541 1306.08 319.156C1308.47 316.771 1311.35 314.922 1314.74 313.608C1318.12 312.294 1321.91 311.637 1326.12 311.637C1328.26 311.637 1330.26 311.807 1332.11 312.148C1333.98 312.489 1335.71 312.963 1337.29 313.571C1338.9 314.155 1340.36 314.873 1341.67 315.725C1342.99 316.577 1344.19 317.513 1345.29 318.535L1342.48 322.988C1342.04 323.694 1341.47 324.132 1340.76 324.302C1340.05 324.448 1339.29 324.266 1338.46 323.755C1337.66 323.293 1336.85 322.83 1336.05 322.368C1335.25 321.906 1334.35 321.504 1333.35 321.163C1332.38 320.823 1331.27 320.543 1330.03 320.324C1328.81 320.105 1327.4 319.995 1325.79 319.995C1323.19 319.995 1320.83 320.433 1318.71 321.309C1316.62 322.185 1314.83 323.439 1313.35 325.069C1311.86 326.699 1310.72 328.658 1309.92 330.945C1309.11 333.233 1308.71 335.788 1308.71 338.61C1308.71 341.628 1309.14 344.329 1309.99 346.713C1310.87 349.074 1312.08 351.081 1313.64 352.736C1315.22 354.366 1317.12 355.619 1319.33 356.495C1321.55 357.347 1324.02 357.773 1326.74 357.773C1328.69 357.773 1330.43 357.566 1331.96 357.152C1333.5 356.739 1334.99 356.179 1336.45 355.473V345.91H1329.81C1329.18 345.91 1328.68 345.74 1328.31 345.399C1327.97 345.034 1327.8 344.596 1327.8 344.085V338.537H1345.32ZM1370.73 337.333C1372.58 337.333 1374.19 337.102 1375.55 336.639C1376.94 336.177 1378.07 335.544 1378.94 334.741C1379.85 333.914 1380.51 332.941 1380.95 331.821C1381.39 330.702 1381.61 329.473 1381.61 328.135C1381.61 325.458 1380.72 323.402 1378.94 321.966C1377.19 320.531 1374.5 319.813 1370.88 319.813H1364.6V337.333H1370.73ZM1395.99 365H1387.12C1385.44 365 1384.23 364.343 1383.47 363.029L1372.37 346.129C1371.96 345.497 1371.5 345.047 1370.99 344.779C1370.5 344.511 1369.77 344.378 1368.8 344.378H1364.6V365H1354.78V312.221H1370.88C1374.46 312.221 1377.52 312.598 1380.08 313.352C1382.66 314.082 1384.76 315.117 1386.39 316.455C1388.05 317.793 1389.26 319.399 1390.04 321.273C1390.82 323.122 1391.21 325.166 1391.21 327.405C1391.21 329.181 1390.94 330.86 1390.41 332.442C1389.89 334.024 1389.14 335.459 1388.14 336.749C1387.17 338.039 1385.95 339.17 1384.49 340.143C1383.06 341.117 1381.41 341.883 1379.57 342.443C1380.2 342.808 1380.78 343.246 1381.32 343.757C1381.85 344.244 1382.34 344.828 1382.78 345.509L1395.99 365ZM1411.55 320.032V334.668H1430.01V342.224H1411.55V357.152H1434.98V365H1401.69V312.221H1434.98V320.032H1411.55ZM1471.57 345.071L1465.14 327.514C1464.83 326.736 1464.5 325.811 1464.16 324.74C1463.82 323.67 1463.47 322.514 1463.13 321.273C1462.82 322.514 1462.49 323.682 1462.15 324.777C1461.81 325.848 1461.48 326.784 1461.16 327.587L1454.78 345.071H1471.57ZM1488.9 365H1481.31C1480.46 365 1479.77 364.793 1479.23 364.379C1478.7 363.941 1478.29 363.406 1478.03 362.773L1474.08 352.006H1452.22L1448.28 362.773C1448.08 363.333 1447.71 363.844 1447.15 364.306C1446.59 364.769 1445.89 365 1445.07 365H1437.4L1458.17 312.221H1468.17L1488.9 365ZM1526.1 320.287H1510.18V365H1500.37V320.287H1484.45V312.221H1526.1V320.287ZM1618.27 312.221L1601.88 365H1593.01L1581.48 328.938C1581.16 328.062 1580.87 326.991 1580.6 325.726C1580.46 326.334 1580.31 326.906 1580.17 327.441C1580.02 327.977 1579.86 328.476 1579.69 328.938L1568.05 365H1559.14L1542.79 312.221H1551C1551.85 312.221 1552.56 312.428 1553.12 312.841C1553.7 313.231 1554.09 313.766 1554.29 314.447L1563.27 346.02C1563.46 346.799 1563.64 347.65 1563.81 348.575C1564.01 349.475 1564.2 350.424 1564.4 351.422C1564.59 350.4 1564.8 349.439 1565.02 348.538C1565.26 347.638 1565.52 346.799 1565.79 346.02L1576.15 314.447C1576.35 313.888 1576.72 313.377 1577.28 312.914C1577.87 312.452 1578.57 312.221 1579.4 312.221H1582.28C1583.14 312.221 1583.83 312.428 1584.36 312.841C1584.9 313.255 1585.3 313.79 1585.57 314.447L1595.9 346.02C1596.41 347.529 1596.87 349.268 1597.29 351.239C1597.6 349.317 1597.95 347.577 1598.34 346.02L1607.32 314.447C1607.47 313.839 1607.83 313.316 1608.42 312.878C1609.03 312.44 1609.74 312.221 1610.57 312.221H1618.27ZM1649.15 345.071L1642.72 327.514C1642.41 326.736 1642.08 325.811 1641.74 324.74C1641.4 323.67 1641.06 322.514 1640.71 321.273C1640.4 322.514 1640.07 323.682 1639.73 324.777C1639.39 325.848 1639.06 326.784 1638.74 327.587L1632.36 345.071H1649.15ZM1666.48 365H1658.89C1658.04 365 1657.35 364.793 1656.81 364.379C1656.28 363.941 1655.87 363.406 1655.61 362.773L1651.66 352.006H1629.8L1625.86 362.773C1625.66 363.333 1625.29 363.844 1624.73 364.306C1624.17 364.769 1623.47 365 1622.65 365H1614.98L1635.75 312.221H1645.75L1666.48 365ZM1702.86 356.897V365H1671.95V312.221H1681.77V356.897H1702.86ZM1740.79 356.897V365H1709.87V312.221H1719.69V356.897H1740.79Z" fill="#1F4971"/>
<defs>
<filter id="filter0_d_8_21" x="405.401" y="0" width="802" height="220" filterUnits="userSpaceOnUse" color-interpolation-filters="sRGB">
<feFlood flood-opacity="0" result="BackgroundImageFix"/>
<feColorMatrix in="SourceAlpha" type="matrix" values="0 0 0 0 0 0 0 0 0 0 0 0 0 0 0 0 0 0 127 0" result="hardAlpha"/>
<feOffset dx="3" dy="3"/>
<feGaussianBlur stdDeviation="0.5"/>
<feComposite in2="hardAlpha" operator="out"/>
<feColorMatrix type="matrix" values="0 0 0 0 0.00392157 0 0 0 0 0.0901961 0 0 0 0 0.180392 0 0 0 1 0"/>
<feBlend mode="normal" in2="BackgroundImageFix" result="effect1_dropShadow_8_21"/>
<feBlend mode="normal" in="SourceGraphic" in2="effect1_dropShadow_8_21" result="shape"/>
</filter>
<filter id="filter1_d_8_21" x="1454.4" y="0" width="300" height="223" filterUnits="userSpaceOnUse" color-interpolation-filters="sRGB">
<feFlood flood-opacity="0" result="BackgroundImageFix"/>
<feColorMatrix in="SourceAlpha" type="matrix" values="0 0 0 0 0 0 0 0 0 0 0 0 0 0 0 0 0 0 127 0" result="hardAlpha"/>
<feOffset dx="4" dy="4"/>
<feGaussianBlur stdDeviation="1.5"/>
<feComposite in2="hardAlpha" operator="out"/>
<feColorMatrix type="matrix" values="0 0 0 0 0.4 0 0 0 0 0.34902 0 0 0 0 0.25098 0 0 0 1 0"/>
<feBlend mode="normal" in2="BackgroundImageFix" result="effect1_dropShadow_8_21"/>
<feBlend mode="normal" in="SourceGraphic" in2="effect1_dropShadow_8_21" result="shape"/>
</filter>
<filter id="filter2_d_8_21" x="1223.4" y="0" width="237" height="223" filterUnits="userSpaceOnUse" color-interpolation-filters="sRGB">
<feFlood flood-opacity="0" result="BackgroundImageFix"/>
<feColorMatrix in="SourceAlpha" type="matrix" values="0 0 0 0 0 0 0 0 0 0 0 0 0 0 0 0 0 0 127 0" result="hardAlpha"/>
<feOffset dx="4" dy="4"/>
<feGaussianBlur stdDeviation="1.5"/>
<feComposite in2="hardAlpha" operator="out"/>
<feColorMatrix type="matrix" values="0 0 0 0 0.4 0 0 0 0 0.34902 0 0 0 0 0.25098 0 0 0 1 0"/>
<feBlend mode="normal" in2="BackgroundImageFix" result="effect1_dropShadow_8_21"/>
<feBlend mode="normal" in="SourceGraphic" in2="effect1_dropShadow_8_21" result="shape"/>
</filter>
<radialGradient id="paint0_radial_8_21" cx="0" cy="0" r="1" gradientTransform="matrix(630.131 2.41191 -8.91066 673.809 550.357 105.856)" gradientUnits="userSpaceOnUse">
<stop stop-color="#05355A"/>
<stop offset="0.276886" stop-color="#244F6B"/>
<stop offset="0.5" stop-color="#024164"/>
<stop offset="0.740416" stop-color="#244F6B"/>
<stop offset="1" stop-color="#05355A"/>
</radialGradient>
<radialGradient id="paint1_radial_8_21" cx="0" cy="0" r="1" gradientTransform="matrix(630.131 2.41191 -8.91066 673.809 550.357 105.856)" gradientUnits="userSpaceOnUse">
<stop stop-color="#05355A"/>
<stop offset="0.276886" stop-color="#244F6B"/>
<stop offset="0.5" stop-color="#024164"/>
<stop offset="0.740416" stop-color="#244F6B"/>
<stop offset="1" stop-color="#05355A"/>
</radialGradient>
<radialGradient id="paint2_radial_8_21" cx="0" cy="0" r="1" gradientTransform="matrix(630.131 2.41191 -8.91066 673.809 550.357 105.856)" gradientUnits="userSpaceOnUse">
<stop stop-color="#05355A"/>
<stop offset="0.276886" stop-color="#244F6B"/>
<stop offset="0.5" stop-color="#024164"/>
<stop offset="0.740416" stop-color="#244F6B"/>
<stop offset="1" stop-color="#05355A"/>
</radialGradient>
<radialGradient id="paint3_radial_8_21" cx="0" cy="0" r="1" gradientTransform="matrix(630.131 2.41191 -8.91066 673.809 550.357 105.856)" gradientUnits="userSpaceOnUse">
<stop stop-color="#05355A"/>
<stop offset="0.276886" stop-color="#244F6B"/>
<stop offset="0.5" stop-color="#024164"/>
<stop offset="0.740416" stop-color="#244F6B"/>
<stop offset="1" stop-color="#05355A"/>
</radialGradient>
<linearGradient id="paint4_linear_8_21" x1="1746.01" y1="231.143" x2="1757.72" y2="-10.3026" gradientUnits="userSpaceOnUse">
<stop stop-color="#957D54"/>
<stop offset="0.244331" stop-color="#9B855C"/>
<stop offset="0.5" stop-color="#D2BA8E"/>
<stop offset="0.703864" stop-color="#D2BD8B"/>
<stop offset="1" stop-color="#BCA57A"/>
</linearGradient>
<linearGradient id="paint5_linear_8_21" x1="1445.43" y1="206.634" x2="1462.47" y2="-54.807" gradientUnits="userSpaceOnUse">
<stop stop-color="#957D54"/>
<stop offset="0.244331" stop-color="#9B855C"/>
<stop offset="0.5" stop-color="#D2BA8E"/>
<stop offset="0.703864" stop-color="#D2BD8B"/>
<stop offset="1" stop-color="#BCA57A"/>
</linearGradient>
</defs>
</svg>
